<mxfile host="app.diagrams.net" modified="2024-05-15T10:50:55.960Z" agent="Mozilla/5.0 (Windows NT 10.0; Win64; x64) AppleWebKit/537.36 (KHTML, like Gecko) Chrome/122.0.0.0 YaBrowser/24.4.0.0 Safari/537.36" etag="Ip3a7UspM-iSxZVALXF8" version="24.4.0" type="device">
  <diagram name="Страница — 1" id="BFZF_Zla4OpGxnbll2Cd">
    <mxGraphModel dx="2100" dy="1196" grid="1" gridSize="10" guides="1" tooltips="1" connect="1" arrows="1" fold="1" page="1" pageScale="1" pageWidth="827" pageHeight="1169" math="0" shadow="0">
      <root>
        <mxCell id="0" />
        <mxCell id="1" parent="0" />
        <mxCell id="cnAiuEh0qsGEL97Jgi11-1" value="Заказчик" style="rounded=0;whiteSpace=wrap;html=1;" vertex="1" parent="1">
          <mxGeometry x="970" y="627.5" width="70" height="40" as="geometry" />
        </mxCell>
        <mxCell id="cnAiuEh0qsGEL97Jgi11-2" style="edgeStyle=orthogonalEdgeStyle;rounded=0;orthogonalLoop=1;jettySize=auto;html=1;exitX=0.5;exitY=1;exitDx=0;exitDy=0;endArrow=none;endFill=0;" edge="1" parent="1" source="cnAiuEh0qsGEL97Jgi11-3" target="cnAiuEh0qsGEL97Jgi11-1">
          <mxGeometry relative="1" as="geometry" />
        </mxCell>
        <mxCell id="cnAiuEh0qsGEL97Jgi11-3" value="ID клиента" style="ellipse;whiteSpace=wrap;html=1;" vertex="1" parent="1">
          <mxGeometry x="960" y="470" width="90" height="60" as="geometry" />
        </mxCell>
        <mxCell id="cnAiuEh0qsGEL97Jgi11-4" style="edgeStyle=orthogonalEdgeStyle;rounded=0;orthogonalLoop=1;jettySize=auto;html=1;endArrow=none;endFill=0;" edge="1" parent="1" source="cnAiuEh0qsGEL97Jgi11-5" target="cnAiuEh0qsGEL97Jgi11-1">
          <mxGeometry relative="1" as="geometry">
            <Array as="points">
              <mxPoint x="1005" y="570.5" />
            </Array>
          </mxGeometry>
        </mxCell>
        <mxCell id="cnAiuEh0qsGEL97Jgi11-5" value="ФИО" style="ellipse;whiteSpace=wrap;html=1;" vertex="1" parent="1">
          <mxGeometry x="820" y="550" width="70" height="40" as="geometry" />
        </mxCell>
        <mxCell id="cnAiuEh0qsGEL97Jgi11-6" style="edgeStyle=orthogonalEdgeStyle;rounded=0;orthogonalLoop=1;jettySize=auto;html=1;endArrow=none;endFill=0;" edge="1" parent="1" source="cnAiuEh0qsGEL97Jgi11-7" target="cnAiuEh0qsGEL97Jgi11-1">
          <mxGeometry relative="1" as="geometry" />
        </mxCell>
        <mxCell id="cnAiuEh0qsGEL97Jgi11-7" value="Контактная информация" style="ellipse;whiteSpace=wrap;html=1;" vertex="1" parent="1">
          <mxGeometry x="790" y="617.5" width="90" height="60" as="geometry" />
        </mxCell>
        <mxCell id="cnAiuEh0qsGEL97Jgi11-8" value="Заказ" style="rounded=0;whiteSpace=wrap;html=1;" vertex="1" parent="1">
          <mxGeometry x="1370" y="762.5" width="60" height="30" as="geometry" />
        </mxCell>
        <mxCell id="cnAiuEh0qsGEL97Jgi11-9" style="edgeStyle=orthogonalEdgeStyle;rounded=0;orthogonalLoop=1;jettySize=auto;html=1;endArrow=none;endFill=0;" edge="1" parent="1" source="cnAiuEh0qsGEL97Jgi11-10" target="cnAiuEh0qsGEL97Jgi11-8">
          <mxGeometry relative="1" as="geometry" />
        </mxCell>
        <mxCell id="cnAiuEh0qsGEL97Jgi11-10" value="ID заказа" style="ellipse;whiteSpace=wrap;html=1;" vertex="1" parent="1">
          <mxGeometry x="1320" y="637.5" width="70" height="40" as="geometry" />
        </mxCell>
        <mxCell id="cnAiuEh0qsGEL97Jgi11-11" style="edgeStyle=orthogonalEdgeStyle;rounded=0;orthogonalLoop=1;jettySize=auto;html=1;exitX=0.5;exitY=1;exitDx=0;exitDy=0;entryX=0.5;entryY=0;entryDx=0;entryDy=0;endArrow=none;endFill=0;" edge="1" parent="1" source="cnAiuEh0qsGEL97Jgi11-12" target="cnAiuEh0qsGEL97Jgi11-8">
          <mxGeometry relative="1" as="geometry" />
        </mxCell>
        <mxCell id="cnAiuEh0qsGEL97Jgi11-12" value="Дата размещения заказа" style="ellipse;whiteSpace=wrap;html=1;" vertex="1" parent="1">
          <mxGeometry x="1450" y="627.5" width="80" height="60" as="geometry" />
        </mxCell>
        <mxCell id="cnAiuEh0qsGEL97Jgi11-13" value="Оформление" style="rhombus;whiteSpace=wrap;html=1;" vertex="1" parent="1">
          <mxGeometry x="1170" y="757.5" width="100" height="50" as="geometry" />
        </mxCell>
        <mxCell id="cnAiuEh0qsGEL97Jgi11-14" value="Менеджер" style="rounded=0;whiteSpace=wrap;html=1;" vertex="1" parent="1">
          <mxGeometry x="1790" y="765" width="70" height="35" as="geometry" />
        </mxCell>
        <mxCell id="cnAiuEh0qsGEL97Jgi11-15" value="Назначение" style="rhombus;whiteSpace=wrap;html=1;" vertex="1" parent="1">
          <mxGeometry x="1570" y="752.5" width="100" height="50" as="geometry" />
        </mxCell>
        <mxCell id="cnAiuEh0qsGEL97Jgi11-16" style="edgeStyle=orthogonalEdgeStyle;rounded=0;orthogonalLoop=1;jettySize=auto;html=1;endArrow=none;endFill=0;exitX=0.62;exitY=0.975;exitDx=0;exitDy=0;exitPerimeter=0;" edge="1" parent="1" source="cnAiuEh0qsGEL97Jgi11-17" target="cnAiuEh0qsGEL97Jgi11-14">
          <mxGeometry relative="1" as="geometry">
            <Array as="points">
              <mxPoint x="1655" y="549.5" />
              <mxPoint x="1655" y="727.5" />
              <mxPoint x="1825" y="727.5" />
            </Array>
          </mxGeometry>
        </mxCell>
        <mxCell id="cnAiuEh0qsGEL97Jgi11-17" value="ID менеджера" style="ellipse;whiteSpace=wrap;html=1;" vertex="1" parent="1">
          <mxGeometry x="1610" y="510" width="90" height="40" as="geometry" />
        </mxCell>
        <mxCell id="cnAiuEh0qsGEL97Jgi11-18" style="edgeStyle=orthogonalEdgeStyle;rounded=0;orthogonalLoop=1;jettySize=auto;html=1;exitX=0.5;exitY=1;exitDx=0;exitDy=0;endArrow=none;endFill=0;" edge="1" parent="1" source="cnAiuEh0qsGEL97Jgi11-19" target="cnAiuEh0qsGEL97Jgi11-14">
          <mxGeometry relative="1" as="geometry">
            <Array as="points">
              <mxPoint x="1760" y="570.5" />
              <mxPoint x="1760" y="667.5" />
              <mxPoint x="1825" y="667.5" />
            </Array>
          </mxGeometry>
        </mxCell>
        <mxCell id="cnAiuEh0qsGEL97Jgi11-19" value="ФИО" style="ellipse;whiteSpace=wrap;html=1;" vertex="1" parent="1">
          <mxGeometry x="1730" y="530" width="70" height="40" as="geometry" />
        </mxCell>
        <mxCell id="cnAiuEh0qsGEL97Jgi11-20" style="edgeStyle=orthogonalEdgeStyle;rounded=0;orthogonalLoop=1;jettySize=auto;html=1;endArrow=none;endFill=0;" edge="1" parent="1" source="cnAiuEh0qsGEL97Jgi11-21" target="cnAiuEh0qsGEL97Jgi11-14">
          <mxGeometry relative="1" as="geometry">
            <Array as="points">
              <mxPoint x="1875" y="727.5" />
              <mxPoint x="1825" y="727.5" />
            </Array>
          </mxGeometry>
        </mxCell>
        <mxCell id="cnAiuEh0qsGEL97Jgi11-21" value="Контактная информация" style="ellipse;whiteSpace=wrap;html=1;" vertex="1" parent="1">
          <mxGeometry x="1830" y="522.5" width="90" height="55" as="geometry" />
        </mxCell>
        <mxCell id="cnAiuEh0qsGEL97Jgi11-22" value="Назначение цеха" style="rhombus;whiteSpace=wrap;html=1;" vertex="1" parent="1">
          <mxGeometry x="1927.5" y="885" width="115" height="55" as="geometry" />
        </mxCell>
        <mxCell id="cnAiuEh0qsGEL97Jgi11-23" value="Производственный цех" style="rounded=0;whiteSpace=wrap;html=1;" vertex="1" parent="1">
          <mxGeometry x="1770" y="1017.5" width="110" height="40" as="geometry" />
        </mxCell>
        <mxCell id="cnAiuEh0qsGEL97Jgi11-25" value="Адрес цеха" style="ellipse;whiteSpace=wrap;html=1;" vertex="1" parent="1">
          <mxGeometry x="1882.5" y="1140" width="90" height="40" as="geometry" />
        </mxCell>
        <mxCell id="cnAiuEh0qsGEL97Jgi11-26" style="edgeStyle=orthogonalEdgeStyle;rounded=0;orthogonalLoop=1;jettySize=auto;html=1;endArrow=none;endFill=0;" edge="1" parent="1" source="cnAiuEh0qsGEL97Jgi11-27">
          <mxGeometry relative="1" as="geometry">
            <mxPoint x="1825" y="1057.5" as="targetPoint" />
            <Array as="points">
              <mxPoint x="1825" y="1197.5" />
              <mxPoint x="1825" y="1037.5" />
            </Array>
          </mxGeometry>
        </mxCell>
        <mxCell id="cnAiuEh0qsGEL97Jgi11-27" value="Название цеха" style="ellipse;whiteSpace=wrap;html=1;" vertex="1" parent="1">
          <mxGeometry x="1780.5" y="1180" width="89" height="50" as="geometry" />
        </mxCell>
        <mxCell id="cnAiuEh0qsGEL97Jgi11-28" style="edgeStyle=orthogonalEdgeStyle;rounded=0;orthogonalLoop=1;jettySize=auto;html=1;endArrow=none;endFill=0;" edge="1" parent="1" source="cnAiuEh0qsGEL97Jgi11-29" target="cnAiuEh0qsGEL97Jgi11-23">
          <mxGeometry relative="1" as="geometry" />
        </mxCell>
        <mxCell id="cnAiuEh0qsGEL97Jgi11-29" value="ID цеха" style="ellipse;whiteSpace=wrap;html=1;" vertex="1" parent="1">
          <mxGeometry x="1700" y="1140" width="70" height="40" as="geometry" />
        </mxCell>
        <mxCell id="cnAiuEh0qsGEL97Jgi11-30" value="Производство" style="rhombus;whiteSpace=wrap;html=1;" vertex="1" parent="1">
          <mxGeometry x="1570" y="1017.5" width="100" height="50" as="geometry" />
        </mxCell>
        <mxCell id="cnAiuEh0qsGEL97Jgi11-31" value="Окно" style="rounded=0;whiteSpace=wrap;html=1;" vertex="1" parent="1">
          <mxGeometry x="1410" y="1027.5" width="60" height="30" as="geometry" />
        </mxCell>
        <mxCell id="cnAiuEh0qsGEL97Jgi11-33" value="Цвет окна" style="ellipse;whiteSpace=wrap;html=1;" vertex="1" parent="1">
          <mxGeometry x="1171" y="1350" width="70" height="40" as="geometry" />
        </mxCell>
        <mxCell id="cnAiuEh0qsGEL97Jgi11-34" style="edgeStyle=orthogonalEdgeStyle;rounded=0;orthogonalLoop=1;jettySize=auto;html=1;endArrow=none;endFill=0;" edge="1" parent="1" source="cnAiuEh0qsGEL97Jgi11-35" target="cnAiuEh0qsGEL97Jgi11-31">
          <mxGeometry relative="1" as="geometry">
            <Array as="points">
              <mxPoint x="1420" y="1160" />
            </Array>
          </mxGeometry>
        </mxCell>
        <mxCell id="cnAiuEh0qsGEL97Jgi11-35" value="Материал рамы" style="ellipse;whiteSpace=wrap;html=1;" vertex="1" parent="1">
          <mxGeometry x="1151" y="1140" width="90" height="40" as="geometry" />
        </mxCell>
        <mxCell id="cnAiuEh0qsGEL97Jgi11-36" style="edgeStyle=orthogonalEdgeStyle;rounded=0;orthogonalLoop=1;jettySize=auto;html=1;endArrow=none;endFill=0;" edge="1" parent="1" source="cnAiuEh0qsGEL97Jgi11-37" target="cnAiuEh0qsGEL97Jgi11-31">
          <mxGeometry relative="1" as="geometry">
            <Array as="points">
              <mxPoint x="1420" y="1237" />
            </Array>
          </mxGeometry>
        </mxCell>
        <mxCell id="cnAiuEh0qsGEL97Jgi11-37" value="Размер окна" style="ellipse;whiteSpace=wrap;html=1;" vertex="1" parent="1">
          <mxGeometry x="1156" y="1217.5" width="80" height="40" as="geometry" />
        </mxCell>
        <mxCell id="cnAiuEh0qsGEL97Jgi11-39" value="Тип окна" style="ellipse;whiteSpace=wrap;html=1;" vertex="1" parent="1">
          <mxGeometry x="1161" y="1290" width="70" height="40" as="geometry" />
        </mxCell>
        <mxCell id="cnAiuEh0qsGEL97Jgi11-40" value="Склад" style="rounded=0;whiteSpace=wrap;html=1;" vertex="1" parent="1">
          <mxGeometry x="917.5" y="1032.5" width="75" height="35" as="geometry" />
        </mxCell>
        <mxCell id="cnAiuEh0qsGEL97Jgi11-41" value="Передача" style="rhombus;whiteSpace=wrap;html=1;" vertex="1" parent="1">
          <mxGeometry x="1190" y="1025" width="80" height="50" as="geometry" />
        </mxCell>
        <mxCell id="cnAiuEh0qsGEL97Jgi11-42" value="Доставка" style="rhombus;whiteSpace=wrap;html=1;" vertex="1" parent="1">
          <mxGeometry x="1070" y="890" width="90" height="50" as="geometry" />
        </mxCell>
        <mxCell id="cnAiuEh0qsGEL97Jgi11-43" value="" style="edgeStyle=entityRelationEdgeStyle;fontSize=12;html=1;endArrow=ERone;endFill=1;rounded=0;exitX=0;exitY=0.5;exitDx=0;exitDy=0;" edge="1" parent="1" source="cnAiuEh0qsGEL97Jgi11-15" target="cnAiuEh0qsGEL97Jgi11-8">
          <mxGeometry width="100" height="100" relative="1" as="geometry">
            <mxPoint x="1440" y="897.5" as="sourcePoint" />
            <mxPoint x="1540" y="797.5" as="targetPoint" />
          </mxGeometry>
        </mxCell>
        <mxCell id="cnAiuEh0qsGEL97Jgi11-44" value="" style="edgeStyle=orthogonalEdgeStyle;fontSize=12;html=1;endArrow=ERone;endFill=1;rounded=0;exitX=0.5;exitY=0;exitDx=0;exitDy=0;" edge="1" parent="1" source="cnAiuEh0qsGEL97Jgi11-22">
          <mxGeometry width="100" height="100" relative="1" as="geometry">
            <mxPoint x="1720" y="877.5" as="sourcePoint" />
            <mxPoint x="1860" y="797.5" as="targetPoint" />
            <Array as="points">
              <mxPoint x="1985" y="797.5" />
            </Array>
          </mxGeometry>
        </mxCell>
        <mxCell id="cnAiuEh0qsGEL97Jgi11-45" value="" style="edgeStyle=orthogonalEdgeStyle;fontSize=12;html=1;endArrow=ERone;endFill=1;rounded=0;exitX=0.5;exitY=1;exitDx=0;exitDy=0;" edge="1" parent="1" source="cnAiuEh0qsGEL97Jgi11-22">
          <mxGeometry width="100" height="100" relative="1" as="geometry">
            <mxPoint x="1670" y="1007.5" as="sourcePoint" />
            <mxPoint x="1880" y="1027.5" as="targetPoint" />
            <Array as="points">
              <mxPoint x="1985" y="1027.5" />
              <mxPoint x="1880" y="1027.5" />
            </Array>
          </mxGeometry>
        </mxCell>
        <mxCell id="cnAiuEh0qsGEL97Jgi11-46" style="edgeStyle=orthogonalEdgeStyle;rounded=0;orthogonalLoop=1;jettySize=auto;html=1;exitX=1;exitY=0.5;exitDx=0;exitDy=0;endArrow=none;endFill=0;" edge="1" parent="1" source="cnAiuEh0qsGEL97Jgi11-47" target="cnAiuEh0qsGEL97Jgi11-40">
          <mxGeometry relative="1" as="geometry" />
        </mxCell>
        <mxCell id="cnAiuEh0qsGEL97Jgi11-47" value="ID заказов" style="ellipse;whiteSpace=wrap;html=1;" vertex="1" parent="1">
          <mxGeometry x="730" y="1085" width="70" height="40" as="geometry" />
        </mxCell>
        <mxCell id="cnAiuEh0qsGEL97Jgi11-48" style="edgeStyle=orthogonalEdgeStyle;rounded=0;orthogonalLoop=1;jettySize=auto;html=1;endArrow=none;endFill=0;" edge="1" parent="1" source="cnAiuEh0qsGEL97Jgi11-49" target="cnAiuEh0qsGEL97Jgi11-40">
          <mxGeometry relative="1" as="geometry" />
        </mxCell>
        <mxCell id="cnAiuEh0qsGEL97Jgi11-49" value="Дата последней инвентаризации&amp;nbsp;" style="ellipse;whiteSpace=wrap;html=1;" vertex="1" parent="1">
          <mxGeometry x="980" y="1187.5" width="110" height="60" as="geometry" />
        </mxCell>
        <mxCell id="cnAiuEh0qsGEL97Jgi11-50" style="edgeStyle=orthogonalEdgeStyle;rounded=0;orthogonalLoop=1;jettySize=auto;html=1;endArrow=none;endFill=0;" edge="1" parent="1" source="cnAiuEh0qsGEL97Jgi11-51" target="cnAiuEh0qsGEL97Jgi11-40">
          <mxGeometry relative="1" as="geometry" />
        </mxCell>
        <mxCell id="cnAiuEh0qsGEL97Jgi11-51" value="Текущий объем заполнения" style="ellipse;whiteSpace=wrap;html=1;" vertex="1" parent="1">
          <mxGeometry x="830" y="1197.5" width="90" height="60" as="geometry" />
        </mxCell>
        <mxCell id="cnAiuEh0qsGEL97Jgi11-52" value="" style="edgeStyle=entityRelationEdgeStyle;fontSize=12;html=1;endArrow=ERone;endFill=1;rounded=0;exitX=1;exitY=0.5;exitDx=0;exitDy=0;entryX=0;entryY=0.5;entryDx=0;entryDy=0;" edge="1" parent="1" source="cnAiuEh0qsGEL97Jgi11-30" target="cnAiuEh0qsGEL97Jgi11-23">
          <mxGeometry width="100" height="100" relative="1" as="geometry">
            <mxPoint x="1500" y="987.5" as="sourcePoint" />
            <mxPoint x="1660" y="887.5" as="targetPoint" />
          </mxGeometry>
        </mxCell>
        <mxCell id="cnAiuEh0qsGEL97Jgi11-53" value="" style="edgeStyle=entityRelationEdgeStyle;fontSize=12;html=1;endArrow=ERoneToMany;rounded=0;exitX=0;exitY=0.5;exitDx=0;exitDy=0;entryX=1;entryY=0.5;entryDx=0;entryDy=0;" edge="1" parent="1" source="cnAiuEh0qsGEL97Jgi11-30" target="cnAiuEh0qsGEL97Jgi11-31">
          <mxGeometry width="100" height="100" relative="1" as="geometry">
            <mxPoint x="1470" y="1107.5" as="sourcePoint" />
            <mxPoint x="1570" y="1007.5" as="targetPoint" />
          </mxGeometry>
        </mxCell>
        <mxCell id="cnAiuEh0qsGEL97Jgi11-54" value="" style="edgeStyle=entityRelationEdgeStyle;fontSize=12;html=1;endArrow=ERoneToMany;rounded=0;entryX=0;entryY=0.5;entryDx=0;entryDy=0;exitX=1;exitY=0.5;exitDx=0;exitDy=0;" edge="1" parent="1" source="cnAiuEh0qsGEL97Jgi11-41" target="cnAiuEh0qsGEL97Jgi11-31">
          <mxGeometry width="100" height="100" relative="1" as="geometry">
            <mxPoint x="1160" y="1097.5" as="sourcePoint" />
            <mxPoint x="1260" y="997.5" as="targetPoint" />
          </mxGeometry>
        </mxCell>
        <mxCell id="cnAiuEh0qsGEL97Jgi11-55" value="" style="edgeStyle=entityRelationEdgeStyle;fontSize=12;html=1;endArrow=ERone;endFill=1;rounded=0;entryX=1;entryY=0.5;entryDx=0;entryDy=0;exitX=0;exitY=0.5;exitDx=0;exitDy=0;" edge="1" parent="1" source="cnAiuEh0qsGEL97Jgi11-41" target="cnAiuEh0qsGEL97Jgi11-40">
          <mxGeometry width="100" height="100" relative="1" as="geometry">
            <mxPoint x="1140" y="1067.5" as="sourcePoint" />
            <mxPoint x="1260" y="997.5" as="targetPoint" />
          </mxGeometry>
        </mxCell>
        <mxCell id="cnAiuEh0qsGEL97Jgi11-56" value="Включает" style="rhombus;whiteSpace=wrap;html=1;" vertex="1" parent="1">
          <mxGeometry x="1370" y="885" width="100" height="50" as="geometry" />
        </mxCell>
        <mxCell id="cnAiuEh0qsGEL97Jgi11-57" value="Поставщик сырья" style="rounded=0;whiteSpace=wrap;html=1;" vertex="1" parent="1">
          <mxGeometry x="2385" y="687.5" width="70" height="40" as="geometry" />
        </mxCell>
        <mxCell id="cnAiuEh0qsGEL97Jgi11-58" value="Поставка" style="rounded=0;whiteSpace=wrap;html=1;" vertex="1" parent="1">
          <mxGeometry x="2350" y="932.5" width="70" height="40" as="geometry" />
        </mxCell>
        <mxCell id="cnAiuEh0qsGEL97Jgi11-59" value="Курьер" style="rounded=0;whiteSpace=wrap;html=1;" vertex="1" parent="1">
          <mxGeometry x="740" y="787.5" width="70" height="40" as="geometry" />
        </mxCell>
        <mxCell id="cnAiuEh0qsGEL97Jgi11-60" value="" style="edgeStyle=entityRelationEdgeStyle;fontSize=12;html=1;endArrow=ERone;endFill=1;rounded=0;exitX=0.97;exitY=0.5;exitDx=0;exitDy=0;exitPerimeter=0;entryX=0;entryY=0.5;entryDx=0;entryDy=0;" edge="1" parent="1" source="cnAiuEh0qsGEL97Jgi11-13" target="cnAiuEh0qsGEL97Jgi11-8">
          <mxGeometry width="100" height="100" relative="1" as="geometry">
            <mxPoint x="1380" y="837.5" as="sourcePoint" />
            <mxPoint x="1480" y="737.5" as="targetPoint" />
          </mxGeometry>
        </mxCell>
        <mxCell id="cnAiuEh0qsGEL97Jgi11-61" value="" style="edgeStyle=entityRelationEdgeStyle;fontSize=12;html=1;endArrow=ERone;endFill=1;rounded=0;exitX=0.033;exitY=0.52;exitDx=0;exitDy=0;exitPerimeter=0;entryX=1.005;entryY=0.433;entryDx=0;entryDy=0;entryPerimeter=0;" edge="1" parent="1" source="cnAiuEh0qsGEL97Jgi11-13" target="cnAiuEh0qsGEL97Jgi11-1">
          <mxGeometry width="100" height="100" relative="1" as="geometry">
            <mxPoint x="1277" y="792.5" as="sourcePoint" />
            <mxPoint x="1380" y="787.5" as="targetPoint" />
          </mxGeometry>
        </mxCell>
        <mxCell id="cnAiuEh0qsGEL97Jgi11-62" value="Создание" style="rhombus;whiteSpace=wrap;html=1;" vertex="1" parent="1">
          <mxGeometry x="2370" y="800" width="100" height="50" as="geometry" />
        </mxCell>
        <mxCell id="cnAiuEh0qsGEL97Jgi11-63" value="Создание поставки" style="rhombus;whiteSpace=wrap;html=1;" vertex="1" parent="1">
          <mxGeometry x="2070" y="655" width="120" height="72.5" as="geometry" />
        </mxCell>
        <mxCell id="cnAiuEh0qsGEL97Jgi11-64" value="" style="edgeStyle=entityRelationEdgeStyle;fontSize=12;html=1;endArrow=ERone;endFill=1;rounded=0;exitX=0;exitY=0.5;exitDx=0;exitDy=0;entryX=1;entryY=0.25;entryDx=0;entryDy=0;" edge="1" parent="1" source="cnAiuEh0qsGEL97Jgi11-63" target="cnAiuEh0qsGEL97Jgi11-14">
          <mxGeometry width="100" height="100" relative="1" as="geometry">
            <mxPoint x="1277" y="792.5" as="sourcePoint" />
            <mxPoint x="1380" y="787.5" as="targetPoint" />
          </mxGeometry>
        </mxCell>
        <mxCell id="cnAiuEh0qsGEL97Jgi11-65" value="" style="edgeStyle=entityRelationEdgeStyle;fontSize=12;html=1;endArrow=ERone;endFill=1;rounded=0;exitX=1;exitY=0.5;exitDx=0;exitDy=0;" edge="1" parent="1" source="cnAiuEh0qsGEL97Jgi11-63" target="cnAiuEh0qsGEL97Jgi11-58">
          <mxGeometry width="100" height="100" relative="1" as="geometry">
            <mxPoint x="1990" y="703.5" as="sourcePoint" />
            <mxPoint x="2340" y="720" as="targetPoint" />
          </mxGeometry>
        </mxCell>
        <mxCell id="cnAiuEh0qsGEL97Jgi11-66" value="" style="edgeStyle=orthogonalEdgeStyle;fontSize=12;html=1;endArrow=ERoneToMany;rounded=0;exitX=0.5;exitY=1;exitDx=0;exitDy=0;entryX=0.5;entryY=0;entryDx=0;entryDy=0;" edge="1" parent="1" source="cnAiuEh0qsGEL97Jgi11-62" target="cnAiuEh0qsGEL97Jgi11-58">
          <mxGeometry width="100" height="100" relative="1" as="geometry">
            <mxPoint x="2340" y="1120" as="sourcePoint" />
            <mxPoint x="2250" y="990" as="targetPoint" />
          </mxGeometry>
        </mxCell>
        <mxCell id="cnAiuEh0qsGEL97Jgi11-67" value="" style="edgeStyle=orthogonalEdgeStyle;fontSize=12;html=1;endArrow=ERone;endFill=1;rounded=0;exitX=0.5;exitY=0;exitDx=0;exitDy=0;entryX=0.5;entryY=1;entryDx=0;entryDy=0;" edge="1" parent="1" source="cnAiuEh0qsGEL97Jgi11-62" target="cnAiuEh0qsGEL97Jgi11-57">
          <mxGeometry width="100" height="100" relative="1" as="geometry">
            <mxPoint x="2090" y="1005" as="sourcePoint" />
            <mxPoint x="2190" y="905" as="targetPoint" />
          </mxGeometry>
        </mxCell>
        <mxCell id="cnAiuEh0qsGEL97Jgi11-68" value="Отправка до цеха" style="rhombus;whiteSpace=wrap;html=1;" vertex="1" parent="1">
          <mxGeometry x="2060" y="1015" width="130" height="70" as="geometry" />
        </mxCell>
        <mxCell id="cnAiuEh0qsGEL97Jgi11-69" value="" style="edgeStyle=orthogonalEdgeStyle;fontSize=12;html=1;endArrow=ERone;endFill=1;rounded=0;entryX=0;entryY=0.75;entryDx=0;entryDy=0;exitX=1;exitY=0.5;exitDx=0;exitDy=0;" edge="1" parent="1" source="cnAiuEh0qsGEL97Jgi11-68" target="cnAiuEh0qsGEL97Jgi11-58">
          <mxGeometry width="100" height="100" relative="1" as="geometry">
            <mxPoint x="2380" y="985.5" as="sourcePoint" />
            <mxPoint x="2440" y="1077.5" as="targetPoint" />
            <Array as="points">
              <mxPoint x="2220" y="1050" />
              <mxPoint x="2220" y="996" />
              <mxPoint x="2225" y="996" />
              <mxPoint x="2225" y="963" />
            </Array>
          </mxGeometry>
        </mxCell>
        <mxCell id="cnAiuEh0qsGEL97Jgi11-70" value="" style="edgeStyle=orthogonalEdgeStyle;fontSize=12;html=1;endArrow=ERone;endFill=1;rounded=0;entryX=1;entryY=0.75;entryDx=0;entryDy=0;exitX=0;exitY=0.5;exitDx=0;exitDy=0;" edge="1" parent="1" source="cnAiuEh0qsGEL97Jgi11-68" target="cnAiuEh0qsGEL97Jgi11-23">
          <mxGeometry width="100" height="100" relative="1" as="geometry">
            <mxPoint x="2135" y="1025.5" as="sourcePoint" />
            <mxPoint x="2235" y="985.5" as="targetPoint" />
          </mxGeometry>
        </mxCell>
        <mxCell id="cnAiuEh0qsGEL97Jgi11-71" value="" style="edgeStyle=entityRelationEdgeStyle;fontSize=12;html=1;endArrow=ERone;endFill=1;rounded=0;exitX=1;exitY=0.5;exitDx=0;exitDy=0;entryX=0;entryY=0.5;entryDx=0;entryDy=0;" edge="1" parent="1" source="cnAiuEh0qsGEL97Jgi11-15" target="cnAiuEh0qsGEL97Jgi11-14">
          <mxGeometry width="100" height="100" relative="1" as="geometry">
            <mxPoint x="1560" y="917.5" as="sourcePoint" />
            <mxPoint x="1705" y="840" as="targetPoint" />
          </mxGeometry>
        </mxCell>
        <mxCell id="cnAiuEh0qsGEL97Jgi11-72" value="" style="edgeStyle=orthogonalEdgeStyle;fontSize=12;html=1;endArrow=ERoneToMany;rounded=0;exitX=0.5;exitY=1;exitDx=0;exitDy=0;entryX=0.5;entryY=0;entryDx=0;entryDy=0;" edge="1" parent="1" source="cnAiuEh0qsGEL97Jgi11-56" target="cnAiuEh0qsGEL97Jgi11-31">
          <mxGeometry width="100" height="100" relative="1" as="geometry">
            <mxPoint x="2270" y="862.5" as="sourcePoint" />
            <mxPoint x="2235" y="945.5" as="targetPoint" />
          </mxGeometry>
        </mxCell>
        <mxCell id="cnAiuEh0qsGEL97Jgi11-73" value="" style="edgeStyle=orthogonalEdgeStyle;fontSize=12;html=1;endArrow=ERone;endFill=1;rounded=0;exitX=0.5;exitY=0;exitDx=0;exitDy=0;entryX=0.5;entryY=1;entryDx=0;entryDy=0;" edge="1" parent="1" source="cnAiuEh0qsGEL97Jgi11-56" target="cnAiuEh0qsGEL97Jgi11-8">
          <mxGeometry width="100" height="100" relative="1" as="geometry">
            <mxPoint x="2270" y="812.5" as="sourcePoint" />
            <mxPoint x="2270" y="740.5" as="targetPoint" />
          </mxGeometry>
        </mxCell>
        <mxCell id="cnAiuEh0qsGEL97Jgi11-74" value="" style="edgeStyle=orthogonalEdgeStyle;fontSize=12;html=1;endArrow=ERone;endFill=1;rounded=0;exitX=0;exitY=0.5;exitDx=0;exitDy=0;entryX=1;entryY=0.5;entryDx=0;entryDy=0;" edge="1" parent="1" source="cnAiuEh0qsGEL97Jgi11-42" target="cnAiuEh0qsGEL97Jgi11-59">
          <mxGeometry width="100" height="100" relative="1" as="geometry">
            <mxPoint x="1410" y="740.5" as="sourcePoint" />
            <mxPoint x="1390" y="647.5" as="targetPoint" />
            <Array as="points">
              <mxPoint x="980" y="915" />
              <mxPoint x="980" y="808" />
            </Array>
          </mxGeometry>
        </mxCell>
        <mxCell id="cnAiuEh0qsGEL97Jgi11-75" value="" style="edgeStyle=orthogonalEdgeStyle;fontSize=12;html=1;endArrow=ERoneToMany;rounded=0;exitX=0.5;exitY=0;exitDx=0;exitDy=0;" edge="1" parent="1" source="cnAiuEh0qsGEL97Jgi11-42" target="cnAiuEh0qsGEL97Jgi11-8">
          <mxGeometry width="100" height="100" relative="1" as="geometry">
            <mxPoint x="1410" y="790.5" as="sourcePoint" />
            <mxPoint x="1280" y="870" as="targetPoint" />
            <Array as="points">
              <mxPoint x="1115" y="841" />
              <mxPoint x="1380" y="841" />
            </Array>
          </mxGeometry>
        </mxCell>
        <mxCell id="cnAiuEh0qsGEL97Jgi11-76" value="Передача" style="rhombus;whiteSpace=wrap;html=1;" vertex="1" parent="1">
          <mxGeometry x="820" y="907.5" width="90" height="50" as="geometry" />
        </mxCell>
        <mxCell id="cnAiuEh0qsGEL97Jgi11-77" value="" style="edgeStyle=orthogonalEdgeStyle;fontSize=12;html=1;endArrow=ERone;endFill=1;rounded=0;exitX=0.5;exitY=1;exitDx=0;exitDy=0;entryX=0.5;entryY=0;entryDx=0;entryDy=0;" edge="1" parent="1" source="cnAiuEh0qsGEL97Jgi11-76" target="cnAiuEh0qsGEL97Jgi11-40">
          <mxGeometry width="100" height="100" relative="1" as="geometry">
            <mxPoint x="1430" y="895.5" as="sourcePoint" />
            <mxPoint x="1410" y="802.5" as="targetPoint" />
          </mxGeometry>
        </mxCell>
        <mxCell id="cnAiuEh0qsGEL97Jgi11-78" value="" style="edgeStyle=orthogonalEdgeStyle;fontSize=12;html=1;endArrow=ERone;endFill=1;rounded=0;exitX=0.5;exitY=0;exitDx=0;exitDy=0;entryX=0.5;entryY=1;entryDx=0;entryDy=0;" edge="1" parent="1" source="cnAiuEh0qsGEL97Jgi11-76" target="cnAiuEh0qsGEL97Jgi11-59">
          <mxGeometry width="100" height="100" relative="1" as="geometry">
            <mxPoint x="875" y="967.5" as="sourcePoint" />
            <mxPoint x="965" y="1042.5" as="targetPoint" />
          </mxGeometry>
        </mxCell>
        <mxCell id="cnAiuEh0qsGEL97Jgi11-79" value="Сырьё" style="rounded=0;whiteSpace=wrap;html=1;" vertex="1" parent="1">
          <mxGeometry x="1902.5" y="1310" width="70" height="40" as="geometry" />
        </mxCell>
        <mxCell id="cnAiuEh0qsGEL97Jgi11-80" style="edgeStyle=orthogonalEdgeStyle;rounded=0;orthogonalLoop=1;jettySize=auto;html=1;endArrow=none;endFill=0;entryX=0.167;entryY=1.083;entryDx=0;entryDy=0;entryPerimeter=0;exitX=1;exitY=0.5;exitDx=0;exitDy=0;" edge="1" parent="1" source="cnAiuEh0qsGEL97Jgi11-39" target="cnAiuEh0qsGEL97Jgi11-31">
          <mxGeometry relative="1" as="geometry">
            <mxPoint x="1246" y="1247" as="sourcePoint" />
            <mxPoint x="1430" y="1068" as="targetPoint" />
            <Array as="points">
              <mxPoint x="1420" y="1310" />
            </Array>
          </mxGeometry>
        </mxCell>
        <mxCell id="cnAiuEh0qsGEL97Jgi11-81" style="edgeStyle=orthogonalEdgeStyle;rounded=0;orthogonalLoop=1;jettySize=auto;html=1;endArrow=none;endFill=0;" edge="1" parent="1" target="cnAiuEh0qsGEL97Jgi11-31">
          <mxGeometry relative="1" as="geometry">
            <mxPoint x="1240" y="1370" as="sourcePoint" />
            <mxPoint x="1430" y="1070" as="targetPoint" />
            <Array as="points">
              <mxPoint x="1420" y="1370" />
            </Array>
          </mxGeometry>
        </mxCell>
        <mxCell id="cnAiuEh0qsGEL97Jgi11-82" style="edgeStyle=orthogonalEdgeStyle;rounded=0;orthogonalLoop=1;jettySize=auto;html=1;endArrow=none;endFill=0;entryX=0.5;entryY=1;entryDx=0;entryDy=0;exitX=0.567;exitY=-0.051;exitDx=0;exitDy=0;exitPerimeter=0;" edge="1" parent="1" source="cnAiuEh0qsGEL97Jgi11-25" target="cnAiuEh0qsGEL97Jgi11-23">
          <mxGeometry relative="1" as="geometry">
            <mxPoint x="1835" y="1067.5" as="targetPoint" />
            <Array as="points">
              <mxPoint x="1934" y="1100" />
              <mxPoint x="1825" y="1100" />
            </Array>
            <mxPoint x="1835" y="1190" as="sourcePoint" />
          </mxGeometry>
        </mxCell>
        <mxCell id="cnAiuEh0qsGEL97Jgi11-83" value="Использует" style="rhombus;whiteSpace=wrap;html=1;" vertex="1" parent="1">
          <mxGeometry x="1540" y="1260" width="100" height="50" as="geometry" />
        </mxCell>
        <mxCell id="cnAiuEh0qsGEL97Jgi11-84" value="Составляет" style="rhombus;whiteSpace=wrap;html=1;" vertex="1" parent="1">
          <mxGeometry x="2130" y="1220" width="100" height="50" as="geometry" />
        </mxCell>
        <mxCell id="cnAiuEh0qsGEL97Jgi11-85" value="" style="edgeStyle=entityRelationEdgeStyle;fontSize=12;html=1;endArrow=ERoneToMany;rounded=0;exitX=1;exitY=0.5;exitDx=0;exitDy=0;entryX=0;entryY=0.5;entryDx=0;entryDy=0;" edge="1" parent="1" source="cnAiuEh0qsGEL97Jgi11-83" target="cnAiuEh0qsGEL97Jgi11-79">
          <mxGeometry width="100" height="100" relative="1" as="geometry">
            <mxPoint x="1580" y="1053" as="sourcePoint" />
            <mxPoint x="1480" y="1053" as="targetPoint" />
          </mxGeometry>
        </mxCell>
        <mxCell id="cnAiuEh0qsGEL97Jgi11-86" value="" style="edgeStyle=orthogonalEdgeStyle;fontSize=12;html=1;endArrow=ERone;endFill=1;rounded=0;entryX=0.75;entryY=1;entryDx=0;entryDy=0;exitX=0;exitY=0.5;exitDx=0;exitDy=0;" edge="1" parent="1" source="cnAiuEh0qsGEL97Jgi11-83" target="cnAiuEh0qsGEL97Jgi11-31">
          <mxGeometry width="100" height="100" relative="1" as="geometry">
            <mxPoint x="1500" y="1240" as="sourcePoint" />
            <mxPoint x="1530" y="1120" as="targetPoint" />
          </mxGeometry>
        </mxCell>
        <mxCell id="cnAiuEh0qsGEL97Jgi11-87" value="" style="edgeStyle=entityRelationEdgeStyle;fontSize=12;html=1;endArrow=ERoneToMany;rounded=0;exitX=0;exitY=0.5;exitDx=0;exitDy=0;entryX=1;entryY=0.5;entryDx=0;entryDy=0;" edge="1" parent="1" source="cnAiuEh0qsGEL97Jgi11-84" target="cnAiuEh0qsGEL97Jgi11-79">
          <mxGeometry width="100" height="100" relative="1" as="geometry">
            <mxPoint x="1650" y="1295" as="sourcePoint" />
            <mxPoint x="2080" y="1380" as="targetPoint" />
          </mxGeometry>
        </mxCell>
        <mxCell id="cnAiuEh0qsGEL97Jgi11-88" value="" style="edgeStyle=orthogonalEdgeStyle;fontSize=12;html=1;endArrow=ERone;endFill=1;rounded=0;exitX=1;exitY=0.5;exitDx=0;exitDy=0;entryX=0.5;entryY=1;entryDx=0;entryDy=0;" edge="1" parent="1" source="cnAiuEh0qsGEL97Jgi11-84" target="cnAiuEh0qsGEL97Jgi11-58">
          <mxGeometry width="100" height="100" relative="1" as="geometry">
            <mxPoint x="1550" y="1295" as="sourcePoint" />
            <mxPoint x="2120" y="1160" as="targetPoint" />
          </mxGeometry>
        </mxCell>
        <mxCell id="cnAiuEh0qsGEL97Jgi11-89" value="ID курьера" style="ellipse;whiteSpace=wrap;html=1;" vertex="1" parent="1">
          <mxGeometry x="550" y="697.5" width="90" height="60" as="geometry" />
        </mxCell>
        <mxCell id="cnAiuEh0qsGEL97Jgi11-90" value="Контактная информация" style="ellipse;whiteSpace=wrap;html=1;" vertex="1" parent="1">
          <mxGeometry x="530" y="807.5" width="90" height="60" as="geometry" />
        </mxCell>
        <mxCell id="cnAiuEh0qsGEL97Jgi11-91" value="ФИО" style="ellipse;whiteSpace=wrap;html=1;" vertex="1" parent="1">
          <mxGeometry x="550" y="902.5" width="90" height="60" as="geometry" />
        </mxCell>
        <mxCell id="cnAiuEh0qsGEL97Jgi11-93" style="edgeStyle=orthogonalEdgeStyle;rounded=0;orthogonalLoop=1;jettySize=auto;html=1;endArrow=none;endFill=0;exitX=1;exitY=0.5;exitDx=0;exitDy=0;entryX=0;entryY=0.5;entryDx=0;entryDy=0;" edge="1" parent="1" source="cnAiuEh0qsGEL97Jgi11-89" target="cnAiuEh0qsGEL97Jgi11-59">
          <mxGeometry relative="1" as="geometry">
            <mxPoint x="890" y="658" as="sourcePoint" />
            <mxPoint x="980" y="658" as="targetPoint" />
          </mxGeometry>
        </mxCell>
        <mxCell id="cnAiuEh0qsGEL97Jgi11-94" style="edgeStyle=orthogonalEdgeStyle;rounded=0;orthogonalLoop=1;jettySize=auto;html=1;endArrow=none;endFill=0;exitX=1;exitY=0.5;exitDx=0;exitDy=0;entryX=0;entryY=0.5;entryDx=0;entryDy=0;" edge="1" parent="1" source="cnAiuEh0qsGEL97Jgi11-90" target="cnAiuEh0qsGEL97Jgi11-59">
          <mxGeometry relative="1" as="geometry">
            <mxPoint x="900" y="668" as="sourcePoint" />
            <mxPoint x="990" y="668" as="targetPoint" />
            <Array as="points">
              <mxPoint x="690" y="838" />
              <mxPoint x="690" y="808" />
            </Array>
          </mxGeometry>
        </mxCell>
        <mxCell id="cnAiuEh0qsGEL97Jgi11-95" style="edgeStyle=orthogonalEdgeStyle;rounded=0;orthogonalLoop=1;jettySize=auto;html=1;endArrow=none;endFill=0;exitX=1;exitY=0.5;exitDx=0;exitDy=0;entryX=0;entryY=0.5;entryDx=0;entryDy=0;" edge="1" parent="1" source="cnAiuEh0qsGEL97Jgi11-91" target="cnAiuEh0qsGEL97Jgi11-59">
          <mxGeometry relative="1" as="geometry">
            <mxPoint x="910" y="678" as="sourcePoint" />
            <mxPoint x="1000" y="678" as="targetPoint" />
          </mxGeometry>
        </mxCell>
        <mxCell id="cnAiuEh0qsGEL97Jgi11-96" value="ID сырья" style="ellipse;whiteSpace=wrap;html=1;" vertex="1" parent="1">
          <mxGeometry x="1770" y="1420" width="70" height="40" as="geometry" />
        </mxCell>
        <mxCell id="cnAiuEh0qsGEL97Jgi11-97" value="Наименование сырья" style="ellipse;whiteSpace=wrap;html=1;" vertex="1" parent="1">
          <mxGeometry x="1892.5" y="1430" width="90" height="40" as="geometry" />
        </mxCell>
        <mxCell id="cnAiuEh0qsGEL97Jgi11-98" value="Количество" style="ellipse;whiteSpace=wrap;html=1;" vertex="1" parent="1">
          <mxGeometry x="2030" y="1430" width="90" height="40" as="geometry" />
        </mxCell>
        <mxCell id="cnAiuEh0qsGEL97Jgi11-99" style="edgeStyle=orthogonalEdgeStyle;rounded=0;orthogonalLoop=1;jettySize=auto;html=1;exitX=0.5;exitY=0;exitDx=0;exitDy=0;endArrow=none;endFill=0;entryX=0.5;entryY=1;entryDx=0;entryDy=0;" edge="1" parent="1" source="cnAiuEh0qsGEL97Jgi11-96" target="cnAiuEh0qsGEL97Jgi11-79">
          <mxGeometry relative="1" as="geometry">
            <mxPoint x="1390" y="1467" as="sourcePoint" />
            <mxPoint x="1545" y="1430" as="targetPoint" />
          </mxGeometry>
        </mxCell>
        <mxCell id="cnAiuEh0qsGEL97Jgi11-100" style="edgeStyle=orthogonalEdgeStyle;rounded=0;orthogonalLoop=1;jettySize=auto;html=1;exitX=0.5;exitY=0;exitDx=0;exitDy=0;endArrow=none;endFill=0;entryX=0.5;entryY=1;entryDx=0;entryDy=0;" edge="1" parent="1" source="cnAiuEh0qsGEL97Jgi11-97" target="cnAiuEh0qsGEL97Jgi11-79">
          <mxGeometry relative="1" as="geometry">
            <mxPoint x="1815" y="1460" as="sourcePoint" />
            <mxPoint x="1948" y="1360" as="targetPoint" />
          </mxGeometry>
        </mxCell>
        <mxCell id="cnAiuEh0qsGEL97Jgi11-101" style="edgeStyle=orthogonalEdgeStyle;rounded=0;orthogonalLoop=1;jettySize=auto;html=1;exitX=0.5;exitY=0;exitDx=0;exitDy=0;endArrow=none;endFill=0;entryX=0.5;entryY=1;entryDx=0;entryDy=0;" edge="1" parent="1" source="cnAiuEh0qsGEL97Jgi11-98" target="cnAiuEh0qsGEL97Jgi11-79">
          <mxGeometry relative="1" as="geometry">
            <mxPoint x="1825" y="1470" as="sourcePoint" />
            <mxPoint x="1958" y="1370" as="targetPoint" />
            <Array as="points">
              <mxPoint x="2075" y="1400" />
              <mxPoint x="1938" y="1400" />
            </Array>
          </mxGeometry>
        </mxCell>
        <mxCell id="cnAiuEh0qsGEL97Jgi11-102" value="Контактная информация" style="ellipse;whiteSpace=wrap;html=1;" vertex="1" parent="1">
          <mxGeometry x="2375" y="570" width="90" height="55" as="geometry" />
        </mxCell>
        <mxCell id="cnAiuEh0qsGEL97Jgi11-103" value="ID поставщика" style="ellipse;whiteSpace=wrap;html=1;" vertex="1" parent="1">
          <mxGeometry x="2260" y="572.5" width="90" height="55" as="geometry" />
        </mxCell>
        <mxCell id="cnAiuEh0qsGEL97Jgi11-104" value="Тип сырья" style="ellipse;whiteSpace=wrap;html=1;" vertex="1" parent="1">
          <mxGeometry x="2510" y="570" width="90" height="55" as="geometry" />
        </mxCell>
        <mxCell id="cnAiuEh0qsGEL97Jgi11-106" style="edgeStyle=orthogonalEdgeStyle;rounded=0;orthogonalLoop=1;jettySize=auto;html=1;endArrow=none;endFill=0;exitX=0.5;exitY=0;exitDx=0;exitDy=0;entryX=0.5;entryY=1;entryDx=0;entryDy=0;" edge="1" parent="1" source="cnAiuEh0qsGEL97Jgi11-57" target="cnAiuEh0qsGEL97Jgi11-103">
          <mxGeometry relative="1" as="geometry">
            <mxPoint x="2200" y="540" as="sourcePoint" />
            <mxPoint x="2270" y="510" as="targetPoint" />
            <Array as="points">
              <mxPoint x="2420" y="660" />
              <mxPoint x="2305" y="660" />
            </Array>
          </mxGeometry>
        </mxCell>
        <mxCell id="cnAiuEh0qsGEL97Jgi11-108" value="" style="endArrow=none;html=1;rounded=0;entryX=0.5;entryY=1;entryDx=0;entryDy=0;exitX=0.5;exitY=0;exitDx=0;exitDy=0;" edge="1" parent="1" source="cnAiuEh0qsGEL97Jgi11-57" target="cnAiuEh0qsGEL97Jgi11-102">
          <mxGeometry width="50" height="50" relative="1" as="geometry">
            <mxPoint x="2300" y="690" as="sourcePoint" />
            <mxPoint x="2350" y="640" as="targetPoint" />
          </mxGeometry>
        </mxCell>
        <mxCell id="cnAiuEh0qsGEL97Jgi11-110" value="" style="endArrow=none;html=1;rounded=0;entryX=0.5;entryY=1;entryDx=0;entryDy=0;exitX=0.5;exitY=0;exitDx=0;exitDy=0;edgeStyle=orthogonalEdgeStyle;" edge="1" parent="1" source="cnAiuEh0qsGEL97Jgi11-57" target="cnAiuEh0qsGEL97Jgi11-104">
          <mxGeometry width="50" height="50" relative="1" as="geometry">
            <mxPoint x="2430" y="698" as="sourcePoint" />
            <mxPoint x="2430" y="635" as="targetPoint" />
            <Array as="points">
              <mxPoint x="2420" y="660" />
              <mxPoint x="2555" y="660" />
            </Array>
          </mxGeometry>
        </mxCell>
        <mxCell id="cnAiuEh0qsGEL97Jgi11-111" value="ID поставки" style="ellipse;whiteSpace=wrap;html=1;" vertex="1" parent="1">
          <mxGeometry x="2540" y="867.5" width="90" height="55" as="geometry" />
        </mxCell>
        <mxCell id="cnAiuEh0qsGEL97Jgi11-112" value="Дата поставки" style="ellipse;whiteSpace=wrap;html=1;" vertex="1" parent="1">
          <mxGeometry x="2540" y="1032.5" width="90" height="55" as="geometry" />
        </mxCell>
        <mxCell id="cnAiuEh0qsGEL97Jgi11-113" value="Количество" style="ellipse;whiteSpace=wrap;html=1;" vertex="1" parent="1">
          <mxGeometry x="2570" y="957.5" width="90" height="55" as="geometry" />
        </mxCell>
        <mxCell id="cnAiuEh0qsGEL97Jgi11-114" value="" style="endArrow=none;html=1;rounded=0;entryX=0;entryY=0.5;entryDx=0;entryDy=0;exitX=1;exitY=0.5;exitDx=0;exitDy=0;edgeStyle=orthogonalEdgeStyle;" edge="1" parent="1" source="cnAiuEh0qsGEL97Jgi11-58" target="cnAiuEh0qsGEL97Jgi11-111">
          <mxGeometry width="50" height="50" relative="1" as="geometry">
            <mxPoint x="2430" y="698" as="sourcePoint" />
            <mxPoint x="2565" y="635" as="targetPoint" />
            <Array as="points">
              <mxPoint x="2500" y="953" />
              <mxPoint x="2500" y="895" />
            </Array>
          </mxGeometry>
        </mxCell>
        <mxCell id="cnAiuEh0qsGEL97Jgi11-115" value="" style="endArrow=none;html=1;rounded=0;exitX=1;exitY=0.5;exitDx=0;exitDy=0;entryX=0;entryY=0.5;entryDx=0;entryDy=0;edgeStyle=orthogonalEdgeStyle;" edge="1" parent="1" source="cnAiuEh0qsGEL97Jgi11-58" target="cnAiuEh0qsGEL97Jgi11-113">
          <mxGeometry width="50" height="50" relative="1" as="geometry">
            <mxPoint x="2460" y="960" as="sourcePoint" />
            <mxPoint x="2510" y="910" as="targetPoint" />
          </mxGeometry>
        </mxCell>
        <mxCell id="cnAiuEh0qsGEL97Jgi11-116" value="" style="endArrow=none;html=1;rounded=0;exitX=1;exitY=0.5;exitDx=0;exitDy=0;entryX=0;entryY=0.5;entryDx=0;entryDy=0;edgeStyle=orthogonalEdgeStyle;" edge="1" parent="1" source="cnAiuEh0qsGEL97Jgi11-58" target="cnAiuEh0qsGEL97Jgi11-112">
          <mxGeometry width="50" height="50" relative="1" as="geometry">
            <mxPoint x="2430" y="963" as="sourcePoint" />
            <mxPoint x="2580" y="995" as="targetPoint" />
          </mxGeometry>
        </mxCell>
      </root>
    </mxGraphModel>
  </diagram>
</mxfile>
